<svg width="26" height="26" viewBox="0 0 26 26" fill="none" xmlns="http://www.w3.org/2000/svg">
<path d="M21.6666 20.5833V17.3333H7.58331C5.78839 17.3333 4.33331 18.7884 4.33331 20.5833M9.53331 23.8333H18.2C19.4134 23.8333 20.0201 23.8333 20.4836 23.5972C20.8913 23.3895 21.2228 23.058 21.4305 22.6503C21.6666 22.1868 21.6666 21.5801 21.6666 20.3667V5.63333C21.6666 4.41989 21.6666 3.81316 21.4305 3.34969C21.2228 2.942 20.8913 2.61055 20.4836 2.40282C20.0201 2.16667 19.4134 2.16667 18.2 2.16667H9.53331C7.71314 2.16667 6.80306 2.16667 6.10784 2.5209C5.49632 2.83249 4.99913 3.32967 4.68754 3.9412C4.33331 4.63641 4.33331 5.5465 4.33331 7.36667V18.6333C4.33331 20.4535 4.33331 21.3636 4.68754 22.0588C4.99913 22.6703 5.49632 23.1675 6.10784 23.4791C6.80306 23.8333 7.71314 23.8333 9.53331 23.8333Z" stroke="white" stroke-width="2" stroke-linecap="round" stroke-linejoin="round"/>
</svg>
