<svg width="33" height="30" viewBox="0 0 33 30" fill="none" xmlns="http://www.w3.org/2000/svg">
<g clip-path="url(#clip0_1_137)">
<path fill-rule="evenodd" clip-rule="evenodd" d="M14.7474 2.22852H17.5387L21.4905 10.1373H10.7793L14.7474 2.22852ZM7.6041 10.1373L11.5722 2.22852H7.73279L7.70122 2.22892C7.13445 2.24341 6.57932 2.38188 6.08067 2.63315C5.58561 2.8826 5.16003 3.2363 4.83783 3.66594L0.655127 9.05836L0.648674 9.06676C0.400668 9.39307 0.219721 9.75601 0.111572 10.1373H7.6041ZM0.583951 12.8159H7.54375L11.966 26.0166L0.839596 13.1333C0.747293 13.0319 0.661986 12.9259 0.583951 12.8159ZM10.5572 12.8159H21.7114L16.3476 28.8928C16.2687 28.8979 16.1894 28.9005 16.11 28.9005C16.0547 28.9005 15.9995 28.8992 15.9444 28.8966L10.5572 12.8159ZM24.7238 12.8159L20.3609 25.8928L31.3804 13.1333C31.4727 13.0319 31.5581 12.9259 31.6361 12.8159H24.7238ZM32.1084 10.1373C32.0002 9.75601 31.8193 9.39307 31.5714 9.06676L31.565 9.05836L27.3821 3.66594C27.0599 3.23628 26.6344 2.8826 26.1394 2.63315C25.6406 2.38188 25.0855 2.24341 24.5187 2.22892L24.4872 2.22852H20.7115L24.6632 10.1373H32.1084Z" fill="white"/>
</g>
<defs>
<clipPath id="clip0_1_137">
<rect width="32.22" height="30" fill="white"/>
</clipPath>
</defs>
</svg>
