<svg width="33" height="30" viewBox="0 0 33 30" fill="none" xmlns="http://www.w3.org/2000/svg">
<path d="M14.7685 3.75H17.4537C18.1952 3.75 18.7963 4.30964 18.7963 5V5.71098C18.7963 6.24573 19.1818 6.71031 19.7122 6.91536C20.2429 7.12048 20.8607 7.0423 21.267 6.66403L21.8072 6.16114C22.3315 5.67298 23.1816 5.67298 23.7059 6.16114L25.6046 7.9289C26.1289 8.41706 26.1289 9.20851 25.6046 9.69667L25.0645 10.1995C24.6582 10.5778 24.5743 11.1531 24.7946 11.6472C25.0148 12.1411 25.5139 12.5 26.0883 12.5L26.8518 12.5C27.5933 12.5 28.1944 13.0596 28.1944 13.75V16.25C28.1944 16.9404 27.5933 17.5 26.8518 17.5H26.0882C25.5138 17.5 25.0148 17.8589 24.7946 18.3528C24.5743 18.8469 24.6582 19.4222 25.0645 19.8004L25.6046 20.3033C26.1289 20.7914 26.1289 21.5829 25.6046 22.071L23.7059 23.8388C23.1816 24.327 22.3315 24.327 21.8072 23.8388L21.2671 23.336C20.8608 22.9577 20.2429 22.8795 19.7123 23.0846C19.1818 23.2897 18.7963 23.7543 18.7963 24.289V25C18.7963 25.6904 18.1952 26.25 17.4537 26.25H14.7685C14.027 26.25 13.4259 25.6904 13.4259 25V24.2891C13.4259 23.7543 13.0404 23.2897 12.5099 23.0846C11.9792 22.8795 11.3613 22.9577 10.955 23.336L10.4149 23.8388C9.8906 24.327 9.04051 24.327 8.5162 23.8388L6.61749 22.071C6.09317 21.5829 6.09317 20.7914 6.61749 20.3033L7.15766 19.8004C7.56395 19.4221 7.64791 18.8468 7.4276 18.3528C7.20736 17.8589 6.70837 17.5 6.13401 17.5H5.37036C4.62887 17.5 4.02777 16.9404 4.02777 16.25V13.75C4.02777 13.0596 4.62887 12.5 5.37036 12.5L6.13399 12.5C6.70836 12.5 7.20737 12.1411 7.42761 11.6472C7.64793 11.1531 7.56397 10.5779 7.15767 10.1996L6.61751 9.69667C6.09319 9.20852 6.09319 8.41706 6.61751 7.92891L8.51622 6.16114C9.04054 5.67298 9.89062 5.67298 10.4149 6.16114L10.9551 6.66404C11.3614 7.04232 11.9793 7.1205 12.51 6.91537C13.0404 6.71031 13.4259 6.24572 13.4259 5.71095V5C13.4259 4.30964 14.027 3.75 14.7685 3.75Z" stroke="white" stroke-width="2" stroke-linecap="round" stroke-linejoin="round"/>
<path d="M18.7963 15C18.7963 16.3807 17.5941 17.5 16.1111 17.5C14.6281 17.5 13.4259 16.3807 13.4259 15C13.4259 13.6193 14.6281 12.5 16.1111 12.5C17.5941 12.5 18.7963 13.6193 18.7963 15Z" stroke="white" stroke-width="2" stroke-linecap="round" stroke-linejoin="round"/>
</svg>
