<svg width="214" height="80" viewBox="0 0 214 80" fill="none" xmlns="http://www.w3.org/2000/svg">
<path d="M8.88202 37.4069V42.4559M17.764 34.8823V44.9804M26.6461 37.4069V42.4559M35.5281 32.3578V47.5049M44.4101 24.7843V55.0784M53.2921 34.8823V44.9804M62.1742 37.4069V42.4559" stroke="white" stroke-width="2" stroke-linecap="round" stroke-linejoin="round"/>
<path d="M73.3483 38.0801V41.7827M84.809 32.5261V47.3366M96.2697 36.2288V43.634M107.73 30.6748V49.1879M119.191 25.1209V54.7418M130.652 34.3774V45.4853M142.112 38.0801V41.7827" stroke="white" stroke-width="2" stroke-linecap="round" stroke-linejoin="round"/>
<path d="M153 36.6495V43.2132M161.596 36.6495V43.2132M170.191 36.6495V43.2132M178.787 33.3676V46.4951M187.382 36.6495V43.2132M195.978 36.6495V43.2132M204.573 36.6495V43.2132" stroke="white" stroke-width="2" stroke-linecap="round" stroke-linejoin="round"/>
</svg>
